<svg width="24" height="24" viewBox="0 0 24 24" fill="none" xmlns="http://www.w3.org/2000/svg">
<path fill-rule="evenodd" clip-rule="evenodd" d="M7.46409 6C7.46409 4.80653 7.93593 3.66193 8.7758 2.81802C9.61568 1.97411 10.7548 1.5 11.9426 1.5C13.1303 1.5 14.2694 1.97411 15.1093 2.81802C15.9492 3.66193 16.421 4.80653 16.421 6C16.421 7.19347 15.9492 8.33807 15.1093 9.18198C14.2694 10.0259 13.1303 10.5 11.9426 10.5C10.7548 10.5 9.61568 10.0259 8.7758 9.18198C7.93593 8.33807 7.46409 7.19347 7.46409 6ZM3.73303 20.105C3.76659 17.9395 4.64628 15.8741 6.18221 14.3546C7.71815 12.8351 9.78713 11.9834 11.9426 11.9834C14.098 11.9834 16.167 12.8351 17.7029 14.3546C19.2388 15.8741 20.1185 17.9395 20.1521 20.105C20.1547 20.2508 20.1149 20.3942 20.0377 20.5176C19.9604 20.641 19.8491 20.7392 19.7172 20.8C17.2781 21.9237 14.6258 22.5037 11.9426 22.5C9.16989 22.5 6.53556 21.892 4.16794 20.8C4.03606 20.7392 3.92468 20.641 3.84744 20.5176C3.7702 20.3942 3.73044 20.2508 3.73303 20.105Z" fill="#FF6600"/>
<g clip-path="url(#clip0_30_11868)">
<path fill-rule="evenodd" clip-rule="evenodd" d="M22.2316 3.23076C22.4597 3.23084 22.6846 3.17671 22.888 3.07279C23.0913 2.96888 23.2673 2.81813 23.4016 2.63283C23.5359 2.44754 23.6247 2.23297 23.6608 2.00662C23.6968 1.78028 23.6791 1.54857 23.609 1.33042C23.5753 1.22575 23.445 1.2041 23.3672 1.28196L22.5017 2.15169C22.4817 2.17272 22.456 2.18732 22.4278 2.19365C22.3996 2.19998 22.3701 2.19774 22.3432 2.18722C22.1081 2.08874 21.9212 1.90115 21.8229 1.66513C21.8124 1.638 21.8102 1.60835 21.8165 1.57993C21.8228 1.55152 21.8373 1.52563 21.8583 1.50553L22.7245 0.635808C22.8017 0.557947 22.7804 0.426777 22.6763 0.392854C22.4516 0.31998 22.2126 0.303443 21.9802 0.344685C21.7477 0.385927 21.5288 0.483696 21.3426 0.629463C21.1563 0.775231 21.0084 0.964569 20.9118 1.18096C20.8151 1.39736 20.7726 1.63423 20.7879 1.87093C20.8056 2.15298 20.7468 2.45505 20.5307 2.63598L18.206 4.58219C18.1127 4.66055 18.0367 4.75756 17.9827 4.86707C17.9288 4.97657 17.8981 5.09616 17.8927 5.21822C17.8873 5.34027 17.9072 5.46213 17.9512 5.57603C17.9953 5.68992 18.0624 5.79336 18.1484 5.87975C18.2344 5.96615 18.3373 6.03361 18.4507 6.07784C18.564 6.12206 18.6853 6.14209 18.8067 6.13664C18.9282 6.13119 19.0472 6.10039 19.1562 6.04619C19.2652 5.99199 19.3617 5.91559 19.4397 5.82184L21.3766 3.48599C21.5567 3.26889 21.8573 3.20976 22.138 3.22753C22.1689 3.22979 22.2001 3.23076 22.2316 3.23076ZM19.177 5.16922C19.177 5.25491 19.1432 5.33709 19.0829 5.39767C19.0226 5.45826 18.9408 5.4923 18.8555 5.4923C18.7702 5.4923 18.6884 5.45826 18.6281 5.39767C18.5679 5.33709 18.534 5.25491 18.534 5.16922C18.534 5.08354 18.5679 5.00136 18.6281 4.94077C18.6884 4.88019 18.7702 4.84615 18.8555 4.84615C18.9408 4.84615 19.0226 4.88019 19.0829 4.94077C19.1432 5.00136 19.177 5.08354 19.177 5.16922Z" fill="#FF6600"/>
<path d="M22.2316 3.71539C22.2872 3.71539 22.3425 3.71312 22.3968 3.70828L23.6039 4.92111C23.7546 5.0726 23.8393 5.27807 23.8393 5.49231C23.8393 5.70655 23.7546 5.91202 23.6039 6.06351C23.4531 6.215 23.2486 6.30011 23.0354 6.30011C22.8222 6.30011 22.6177 6.215 22.4669 6.06351L21.049 4.63874L21.7473 3.79648C21.7641 3.77612 21.7946 3.75189 21.8573 3.73316C21.9223 3.71377 22.0081 3.70505 22.1071 3.71151C22.1483 3.71409 22.1898 3.71539 22.2316 3.71539ZM19.4986 1.48163L20.2477 2.2344C20.2405 2.2452 20.2318 2.25498 20.222 2.26348L19.7558 2.65376L19.0439 1.93846H18.6333C18.6035 1.93846 18.5742 1.93012 18.5489 1.91437C18.5235 1.89863 18.503 1.87609 18.4896 1.84929L17.943 0.750186C17.9279 0.719889 17.9226 0.685586 17.928 0.652131C17.9334 0.618677 17.9491 0.587765 17.9729 0.563771L18.1304 0.405463C18.1543 0.381482 18.185 0.365646 18.2183 0.360195C18.2516 0.354745 18.2858 0.359957 18.316 0.375094L19.4098 0.924325C19.4366 0.937802 19.4591 0.958523 19.4748 0.984152C19.4904 1.00978 19.4987 1.0393 19.4986 1.06939V1.48163Z" fill="#FF6600"/>
</g>
<defs>
<clipPath id="clip0_30_11868">
<rect width="6.43062" height="6.46154" fill="white" transform="translate(17.5694)"/>
</clipPath>
</defs>
</svg>
