<svg width="24" height="24" viewBox="0 0 24 24" fill="none" xmlns="http://www.w3.org/2000/svg">
<g id="receipt-percent/outline">
<path id="Vector" d="M9 14.25L15 8.25M19.5 4.757V21.75L15.75 20.25L12 21.75L8.25 20.25L4.5 21.75V4.757C4.5 3.649 5.306 2.7 6.407 2.572C10.1232 2.14063 13.8768 2.14063 17.593 2.572C18.693 2.7 19.5 3.649 19.5 4.757ZM9.75 9H9.758V9.008H9.75V9ZM10.125 9C10.125 9.09945 10.0855 9.19484 10.0152 9.26516C9.94484 9.33549 9.84946 9.375 9.75 9.375C9.65054 9.375 9.55516 9.33549 9.48483 9.26516C9.41451 9.19484 9.375 9.09945 9.375 9C9.375 8.90054 9.41451 8.80516 9.48483 8.73483C9.55516 8.66451 9.65054 8.625 9.75 8.625C9.84946 8.625 9.94484 8.66451 10.0152 8.73483C10.0855 8.80516 10.125 8.90054 10.125 9ZM14.25 13.5H14.258V13.508H14.25V13.5ZM14.625 13.5C14.625 13.5995 14.5855 13.6948 14.5152 13.7652C14.4448 13.8355 14.3495 13.875 14.25 13.875C14.1505 13.875 14.0552 13.8355 13.9848 13.7652C13.9145 13.6948 13.875 13.5995 13.875 13.5C13.875 13.4005 13.9145 13.3052 13.9848 13.2348C14.0552 13.1645 14.1505 13.125 14.25 13.125C14.3495 13.125 14.4448 13.1645 14.5152 13.2348C14.5855 13.3052 14.625 13.4005 14.625 13.5Z" stroke="#373737" stroke-width="1.5" stroke-linecap="round" stroke-linejoin="round"/>
</g>
</svg>
