<svg width="24" height="24" viewBox="0 0 24 24" fill="none" xmlns="http://www.w3.org/2000/svg">
<g id="document-duplicate/solid">
<path id="Vector" d="M7.5 3.375C7.5 2.339 8.34 1.5 9.375 1.5H9.75C10.7446 1.5 11.6984 1.89509 12.4017 2.59835C13.1049 3.30161 13.5 4.25544 13.5 5.25V7.125C13.5 8.161 14.34 9 15.375 9H17.25C18.2446 9 19.1984 9.39509 19.9017 10.0983C20.6049 10.8016 21 11.7554 21 12.75V16.125C21 17.16 20.16 18 19.125 18H9.375C8.87772 18 8.4008 17.8025 8.04917 17.4508C7.69754 17.0992 7.5 16.6223 7.5 16.125V3.375Z" fill="#FF6600"/>
<path id="Vector_2" d="M15 5.24999C15.0018 3.98854 14.5475 2.76896 13.721 1.81599C15.3943 2.25596 16.9207 3.13247 18.1441 4.35588C19.3675 5.57929 20.244 7.1057 20.684 8.77899C19.731 7.95248 18.5115 7.49824 17.25 7.49999H15.375C15.2755 7.49999 15.1802 7.46049 15.1098 7.39016C15.0395 7.31983 15 7.22445 15 7.12499V5.24999ZM4.875 5.99999H6V16.125C6 17.0201 6.35558 17.8785 6.98851 18.5115C7.62145 19.1444 8.47989 19.5 9.375 19.5H16.5V20.625C16.5 21.66 15.66 22.5 14.625 22.5H4.875C4.37772 22.5 3.90081 22.3025 3.54917 21.9508C3.19754 21.5992 3 21.1223 3 20.625V7.87499C3 6.83899 3.84 5.99999 4.875 5.99999Z" fill="#FF6600"/>
</g>
</svg>
