<svg width="24" height="24" viewBox="0 0 24 24" fill="none" xmlns="http://www.w3.org/2000/svg">
<g id="document-sparkles">
<path id="Vector" d="M19.5 14.25V11.625C19.5 10.7299 19.1444 9.87145 18.5115 9.23851C17.8786 8.60558 17.0201 8.25 16.125 8.25H14.625C14.3266 8.25 14.0405 8.13147 13.8295 7.9205C13.6185 7.70952 13.5 7.42337 13.5 7.125V5.625C13.5 4.72989 13.1444 3.87145 12.5115 3.23851C11.8785 2.60558 11.0201 2.25 10.125 2.25H8.25M10.5 2.25H5.625C5.004 2.25 4.5 2.754 4.5 3.375V20.625C4.5 21.246 5.004 21.75 5.625 21.75H18.375C18.996 21.75 19.5 21.246 19.5 20.625V11.25C19.5 8.86305 18.5518 6.57387 16.864 4.88604C15.1761 3.19821 12.8869 2.25 10.5 2.25Z" stroke="#373737" stroke-width="1.5" stroke-linecap="round" stroke-linejoin="round"/>
<path id="Vector_2" d="M8.30841 9.41241C8.33646 9.27425 8.41139 9.15003 8.52052 9.06081C8.62965 8.97159 8.76626 8.92285 8.90721 8.92285C9.04815 8.92285 9.18476 8.97159 9.29389 9.06081C9.40302 9.15003 9.47796 9.27425 9.50601 9.41241L9.65265 10.141C9.67623 10.2593 9.7343 10.368 9.81955 10.4534C9.9048 10.5388 10.0134 10.597 10.1317 10.6207L10.86 10.7662C10.9988 10.7937 11.1238 10.8684 11.2136 10.9778C11.3034 11.0871 11.3525 11.2243 11.3525 11.3658C11.3525 11.5073 11.3034 11.6444 11.2136 11.7538C11.1238 11.8631 10.9988 11.9379 10.86 11.9653L10.1317 12.1108C10.0133 12.1344 9.90456 12.1926 9.81919 12.278C9.73383 12.3634 9.67566 12.4722 9.65204 12.5906L9.50662 13.3191C9.47917 13.458 9.40441 13.583 9.2951 13.6728C9.18578 13.7626 9.04869 13.8117 8.90721 13.8117C8.76573 13.8117 8.62864 13.7626 8.51932 13.6728C8.41001 13.583 8.33525 13.458 8.3078 13.3191L8.16238 12.5906C8.13875 12.4722 8.08059 12.3634 7.99522 12.278C7.90986 12.1926 7.80112 12.1344 7.68273 12.1108L6.95439 11.9653C6.8156 11.9379 6.69064 11.8631 6.60082 11.7538C6.51101 11.6444 6.46191 11.5073 6.46191 11.3658C6.46191 11.2243 6.51101 11.0871 6.60082 10.9778C6.69064 10.8684 6.8156 10.7937 6.95439 10.7662L7.68273 10.6207C7.80112 10.5971 7.90986 10.5389 7.99522 10.4535C8.08059 10.3681 8.13875 10.2594 8.16238 10.141L8.3078 9.41241H8.30841ZM13.8265 11.7838C13.867 11.662 13.9448 11.556 14.0489 11.4809C14.1529 11.4058 14.278 11.3653 14.4064 11.3653C14.5347 11.3653 14.6598 11.4058 14.7639 11.4809C14.868 11.556 14.9458 11.662 14.9862 11.7838L15.4036 13.0374C15.4335 13.1275 15.4841 13.2094 15.5513 13.2765C15.6184 13.3437 15.7002 13.3943 15.7903 13.4243L17.0435 13.8417C17.1653 13.8822 17.2713 13.96 17.3464 14.0641C17.4215 14.1682 17.4619 14.2933 17.4619 14.4217C17.4619 14.5501 17.4215 14.6752 17.3464 14.7793C17.2713 14.8834 17.1653 14.9613 17.0435 15.0017L15.7903 15.4198C15.7003 15.4497 15.6185 15.5002 15.5514 15.5673C15.4842 15.6343 15.4336 15.7161 15.4036 15.8061L14.9862 17.0596C14.9458 17.1814 14.868 17.2874 14.7639 17.3626C14.6598 17.4377 14.5347 17.4781 14.4064 17.4781C14.278 17.4781 14.1529 17.4377 14.0489 17.3626C13.9448 17.2874 13.867 17.1814 13.8265 17.0596L13.4092 15.8061C13.3792 15.7159 13.3286 15.6341 13.2615 15.5669C13.1944 15.4997 13.1125 15.4492 13.0224 15.4192L11.7692 15.0017C11.6474 14.9613 11.5415 14.8834 11.4664 14.7793C11.3913 14.6752 11.3508 14.5501 11.3508 14.4217C11.3508 14.2933 11.3913 14.1682 11.4664 14.0641C11.5415 13.96 11.6474 13.8822 11.7692 13.8417L13.0224 13.4243C13.1125 13.3943 13.1944 13.3437 13.2615 13.2765C13.3286 13.2094 13.3792 13.1275 13.4092 13.0374L13.8265 11.7838ZM9.54939 16.6733C9.58985 16.5515 9.66765 16.4455 9.77173 16.3704C9.87581 16.2953 10.0009 16.2548 10.1292 16.2548C10.2576 16.2548 10.3827 16.2953 10.4868 16.3704C10.5908 16.4455 10.6686 16.5515 10.7091 16.6733L10.8215 17.0101C10.8515 17.1001 10.9019 17.182 10.969 17.2491C11.036 17.3163 11.1177 17.3669 11.2077 17.397L11.5444 17.5088C11.6662 17.5493 11.7721 17.6271 11.8472 17.7312C11.9223 17.8353 11.9627 17.9605 11.9627 18.0888C11.9627 18.2172 11.9223 18.3423 11.8472 18.4465C11.7721 18.5506 11.6662 18.6284 11.5444 18.6689L11.2077 18.7807C11.1176 18.8107 11.0357 18.8613 10.9686 18.9284C10.9015 18.9956 10.8509 19.0775 10.8209 19.1676L10.7091 19.5044C10.6686 19.6262 10.5908 19.7322 10.4868 19.8073C10.3827 19.8824 10.2576 19.9229 10.1292 19.9229C10.0009 19.9229 9.87581 19.8824 9.77173 19.8073C9.66765 19.7322 9.58985 19.6262 9.54939 19.5044L9.43696 19.1676C9.40704 19.0775 9.35656 18.9957 9.28954 18.9286C9.22251 18.8614 9.14077 18.8108 9.0508 18.7807L8.71413 18.6689C8.59233 18.6284 8.48636 18.5506 8.41126 18.4465C8.33616 18.3423 8.29575 18.2172 8.29575 18.0888C8.29575 17.9605 8.33616 17.8353 8.41126 17.7312C8.48636 17.6271 8.59233 17.5493 8.71413 17.5088L9.0508 17.3964C9.14082 17.3664 9.22264 17.3159 9.28977 17.2489C9.3569 17.1819 9.40751 17.1001 9.43757 17.0101L9.54939 16.6733Z" fill="#373737"/>
</g>
</svg>
