<svg width="18" height="18" viewBox="0 0 18 18" fill="none" xmlns="http://www.w3.org/2000/svg">
<path id="Vector" fill-rule="evenodd" clip-rule="evenodd" d="M0.5 9C0.5 4.30538 4.30538 0.5 9 0.5C13.6946 0.5 17.5 4.30538 17.5 9C17.5 13.6946 13.6946 17.5 9 17.5C4.30538 17.5 0.5 13.6946 0.5 9ZM12.1472 7.41856C12.1995 7.34887 12.2373 7.26941 12.2585 7.18488C12.2797 7.10034 12.2837 7.01243 12.2704 6.92631C12.2571 6.84019 12.2267 6.75759 12.1811 6.68338C12.1354 6.60916 12.0753 6.54483 12.0044 6.49416C11.9335 6.44348 11.8532 6.40749 11.7682 6.3883C11.6832 6.36911 11.5952 6.36711 11.5094 6.3824C11.4237 6.3977 11.3418 6.42999 11.2687 6.47738C11.1955 6.52477 11.1326 6.5863 11.0836 6.65836L8.26246 10.6076L6.84667 9.1918C6.72272 9.0763 6.55878 9.01342 6.38939 9.01641C6.22 9.0194 6.05838 9.08802 5.93859 9.20782C5.81879 9.32761 5.75017 9.48923 5.74718 9.65862C5.74419 9.82801 5.80707 9.99195 5.92256 10.1159L7.8841 12.0774C7.95122 12.1445 8.03213 12.1962 8.12122 12.2288C8.21031 12.2615 8.30543 12.2744 8.4 12.2666C8.49456 12.2588 8.5863 12.2305 8.66883 12.1837C8.75136 12.1369 8.82272 12.0726 8.87795 11.9955L12.1472 7.41856Z" fill="#52C41A"/>
</svg>
