<svg width="22" height="22" viewBox="0 0 22 22" fill="none" xmlns="http://www.w3.org/2000/svg">
<g id="Group">
<path id="Vector" d="M3.30767 9.46154C4.58217 9.46154 5.61535 8.42836 5.61535 7.15387C5.61535 5.87937 4.58217 4.84619 3.30767 4.84619C2.03318 4.84619 1 5.87937 1 7.15387C1 8.42836 2.03318 9.46154 3.30767 9.46154Z" stroke="#FF6600" stroke-width="1.5" stroke-linecap="round" stroke-linejoin="round"/>
<path id="Vector_2" d="M3.30859 9.46143V20.9998" stroke="#FF6600" stroke-width="1.5" stroke-linecap="round" stroke-linejoin="round"/>
<path id="Vector_3" d="M3.30859 1V4.84613" stroke="#FF6600" stroke-width="1.5" stroke-linecap="round" stroke-linejoin="round"/>
<path id="Vector_4" d="M18.6924 9.46154C19.9669 9.46154 21.0001 8.42836 21.0001 7.15387C21.0001 5.87937 19.9669 4.84619 18.6924 4.84619C17.4179 4.84619 16.3848 5.87937 16.3848 7.15387C16.3848 8.42836 17.4179 9.46154 18.6924 9.46154Z" stroke="#FF6600" stroke-width="1.5" stroke-linecap="round" stroke-linejoin="round"/>
<path id="Vector_5" d="M18.6924 4.84613V1" stroke="#FF6600" stroke-width="1.5" stroke-linecap="round" stroke-linejoin="round"/>
<path id="Vector_6" d="M18.6924 20.9998V9.46143" stroke="#FF6600" stroke-width="1.5" stroke-linecap="round" stroke-linejoin="round"/>
<path id="Vector_7" d="M11.0001 13.3077C12.2746 13.3077 13.3077 12.2746 13.3077 11.0001C13.3077 9.72556 12.2746 8.69238 11.0001 8.69238C9.72556 8.69238 8.69238 9.72556 8.69238 11.0001C8.69238 12.2746 9.72556 13.3077 11.0001 13.3077Z" stroke="#FF6600" stroke-width="1.5" stroke-linecap="round" stroke-linejoin="round"/>
<path id="Vector_8" d="M11 1V8.69225" stroke="#FF6600" stroke-width="1.5" stroke-linecap="round" stroke-linejoin="round"/>
<path id="Vector_9" d="M11 13.3076V20.9999" stroke="#FF6600" stroke-width="1.5" stroke-linecap="round" stroke-linejoin="round"/>
</g>
</svg>
