<svg width="31" height="30" viewBox="0 0 31 30" fill="none" xmlns="http://www.w3.org/2000/svg">
<g id="_1958945194784">
<path id="Vector" d="M4.1227 8.17122C6.3996 8.17122 8.2454 6.34203 8.2454 4.08561C8.2454 1.82919 6.3996 0 4.1227 0C1.84579 0 0 1.82919 0 4.08561C0 6.34203 1.84579 8.17122 4.1227 8.17122Z" fill="#FF6600"/>
<path id="Vector_2" d="M30.1845 16.7522C29.9266 12.8789 27.418 10.7188 23.396 10.8197C21.2229 10.8742 20.1833 11.4881 18.8224 12.6386C18.5819 12.8418 17.8081 13.6599 17.7772 13.6819C17.715 13.6164 17.464 13.143 17.3871 13.0241C17.242 12.7988 17.0929 12.6341 16.934 12.4438C15.2721 10.4532 11.2437 10.3859 8.99652 11.6836C8.54723 11.943 8.43537 12.06 8.08591 12.3311C7.89212 12.4813 7.5383 12.8346 7.24913 13.1544V10.811H0.984863V29.4347H7.24913V17.7202C7.28979 17.5455 7.33706 17.3756 7.39866 17.2168C7.7714 16.2568 8.52704 15.5646 9.81512 15.4845C11.2554 15.3949 12.0764 15.9789 12.3658 17.1177C12.6288 18.1544 12.5216 19.9119 12.5216 21.057C12.5216 23.78 12.5229 29.4347 12.5229 29.4347H18.6296C18.6296 29.4347 18.6324 23.7791 18.6324 21.057C18.6324 19.9004 18.5086 18.222 18.883 17.2281C19.2396 16.2805 20.0509 15.6019 21.3535 15.5484C24.5777 15.4159 24.0614 18.766 24.0614 21.0853C24.0614 23.7983 24.0632 29.4347 24.0632 29.4347H30.2037C30.2037 29.4347 30.2047 23.6686 30.2047 20.8871C30.2047 19.8408 30.246 17.6726 30.1845 16.7522Z" fill="#FF6600"/>
</g>
</svg>
