<svg width="120" height="30" viewBox="0 0 120 30" fill="none" xmlns="http://www.w3.org/2000/svg">
<g id="_1958945194784">
<path id="Vector" d="M93.9043 8.17122C96.1812 8.17122 98.027 6.34203 98.027 4.08561C98.027 1.82919 96.1812 0 93.9043 0C91.6274 0 89.7816 1.82919 89.7816 4.08561C89.7816 6.34203 91.6274 8.17122 93.9043 8.17122Z" fill="#FF6600"/>
<path id="Vector_2" d="M4.1227 8.17122C6.3996 8.17122 8.2454 6.34203 8.2454 4.08561C8.2454 1.82919 6.3996 0 4.1227 0C1.8458 0 0 1.82919 0 4.08561C0 6.34203 1.8458 8.17122 4.1227 8.17122Z" fill="#FF6600"/>
<path id="Vector_3" d="M21.0484 10.8145C19.4909 10.8539 18.0591 11.3122 16.9303 12.1134C16.3508 12.5246 16.0247 12.8209 15.595 13.2962V10.8111H9.33069V29.4347H15.595V18.376C15.6653 17.9752 15.7792 17.589 15.9772 17.2269C16.4483 16.3661 17.3344 15.7461 18.7124 15.6673C22.2021 15.4672 21.8637 18.2216 21.8637 21.0163C21.8637 22.4179 21.865 29.4291 21.865 29.4291L28.1106 29.4226C28.1106 29.4226 28.1523 17.6425 28.0846 16.7254C27.7919 12.7518 25.1333 10.7119 21.0484 10.8145Z" fill="#FF6600"/>
<path id="Vector_4" d="M81.6032 10.8145C80.0458 10.8539 78.6141 11.3122 77.4852 12.1134C76.9056 12.5246 76.5794 12.8209 76.1498 13.2962V10.8111H69.8855V29.4347H76.1498V18.3762C76.2201 17.9752 76.334 17.589 76.5322 17.2269C77.0032 16.3661 77.8892 15.7461 79.2673 15.6673C82.757 15.4672 82.4186 18.2216 82.4186 21.0163C82.4186 22.4179 82.4199 29.4291 82.4199 29.4291L88.6655 29.4226C88.6655 29.4226 88.6662 23.7582 88.6662 20.9309C88.6662 19.8818 88.7071 17.6425 88.6394 16.7254C88.3468 12.7518 85.6882 10.7119 81.6032 10.8145Z" fill="#FF6600"/>
<path id="Vector_5" d="M62.804 18.0534L55.0791 18.0515C55.0787 17.6674 55.3434 16.9148 55.4791 16.5912C56.0884 15.1393 57.3788 14.4147 58.936 14.3974C60.609 14.379 61.8604 15.1445 62.4541 16.5294C62.5901 16.8473 62.846 17.6628 62.804 18.0534ZM60.821 10.4058C55.5135 9.59724 50.5477 12.2444 49.2898 17.7301C48.6465 20.5352 49.12 23.5256 50.4251 25.6096C51.5521 27.4092 53.3323 28.8863 56.0013 29.6002C58.6042 30.2964 61.8755 30.0809 64.1164 28.9726C65.3339 28.3702 66.1024 27.7169 66.8183 26.8906C67.4508 26.1607 68.2721 24.7258 68.471 23.7363L62.7379 23.7368C62.5823 24.0983 62.2261 24.5445 62.0102 24.7983C61.0776 25.8954 59.3536 26.108 57.9539 25.7581C56.9297 25.5022 56.2778 24.975 55.8063 24.3242C55.3439 23.6869 54.9775 22.5712 55.0016 21.5648L68.8369 21.5625C68.965 15.8543 66.4753 11.267 60.821 10.4058Z" fill="#FF6600"/>
<path id="Vector_6" d="M40.9424 24.6441C39.5309 25.5783 37.3276 25.3865 35.432 25.3789V14.8447C37.3836 14.8332 39.3612 14.6837 40.8482 15.6585C41.4871 16.0774 41.9821 16.5931 42.3537 17.3939C42.727 18.1976 42.8911 19.1011 42.8963 20.1033C42.906 21.955 42.4558 23.6425 40.9424 24.6441ZM42.896 11.5952C40.9159 10.8015 39.2042 10.8194 36.9328 10.8194C36.4331 10.8194 35.9323 10.8175 35.432 10.8163V10.8111H30.2118V29.4347C30.2118 29.4347 36.4518 29.431 36.9616 29.431C39.1618 29.431 40.9887 29.4112 42.923 28.6688C46.185 27.4168 47.9298 24.5941 47.9603 20.1326C47.9907 15.6979 46.0226 12.8484 42.896 11.5952Z" fill="#FF6600"/>
<path id="Vector_7" d="M0.979208 29.5133L7.26896 29.5101V10.8111L0.978271 10.8136L0.979208 29.5133Z" fill="#FF6600"/>
<path id="Vector_8" d="M119.966 16.7523C119.708 12.8789 117.2 10.7188 113.178 10.8197C111.005 10.8742 109.965 11.4881 108.604 12.6387C108.364 12.8419 107.59 13.66 107.559 13.6819C107.497 13.6165 107.246 13.143 107.169 13.0242C107.024 12.7988 106.875 12.6341 106.716 12.4438C105.054 10.4532 101.025 10.3859 98.7783 11.6837C98.329 11.9431 98.2171 12.06 97.8676 12.3312C97.6739 12.4813 97.32 12.8346 97.0309 13.1544V10.811H90.7666V29.4347H97.0309V17.7202C97.0715 17.5455 97.1188 17.3756 97.1804 17.2168C97.5531 16.2568 98.3088 15.5646 99.5969 15.4845C101.037 15.395 101.858 15.979 102.148 17.1178C102.411 18.1544 102.303 19.9119 102.303 21.057C102.303 23.7801 102.305 29.4347 102.305 29.4347H108.411C108.411 29.4347 108.414 23.7791 108.414 21.057C108.414 19.9004 108.29 18.2221 108.665 17.2281C109.021 16.2806 109.833 15.602 111.135 15.5484C114.359 15.4159 113.843 18.766 113.843 21.0854C113.843 23.7983 113.845 29.4347 113.845 29.4347H119.985C119.985 29.4347 119.986 23.6686 119.986 20.8871C119.986 19.8408 120.028 17.6726 119.966 16.7523Z" fill="#FF6600"/>
</g>
</svg>
