<svg width="74" height="88" viewBox="0 0 74 88" fill="none" xmlns="http://www.w3.org/2000/svg">
<rect x="0.5" y="0.5" width="73" height="87" rx="7.5" fill="white"/>
<path fill-rule="evenodd" clip-rule="evenodd" d="M34.7148 12.4786C31.8692 12.8485 29.1886 13.8026 26.7747 15.3046C25.0395 16.3842 22.995 18.3011 21.8434 19.9281C20.4565 21.8875 19.5856 23.8467 19.0276 26.2625C18.8166 27.176 18.783 27.623 18.783 29.5152C18.783 31.4073 18.8166 31.8544 19.0276 32.7678C19.863 36.3848 21.4207 39.1017 24.098 41.6119C26.7753 44.1221 29.6731 45.5826 33.5308 46.3659C34.5051 46.5637 34.982 46.5952 37 46.5952C39.0181 46.5952 39.495 46.5637 40.4692 46.3659C44.327 45.5826 47.2248 44.1221 49.9021 41.6119C52.5794 39.1017 54.1371 36.3848 54.9725 32.7678C55.1835 31.8544 55.2171 31.4073 55.2171 29.5152C55.2171 27.623 55.1835 27.176 54.9725 26.2625C54.1371 22.6455 52.5794 19.9286 49.9021 17.4184C47.2372 14.9198 44.2979 13.4342 40.5252 12.6793C39.3009 12.4343 35.9463 12.3184 34.7148 12.4786ZM40.1014 15.5185C43.0101 16.1063 45.6695 17.4621 47.7625 19.4245C49.8999 21.4286 51.382 24.0285 51.9824 26.8278C52.2519 28.0841 52.2519 30.9462 51.9824 32.2025C51.7288 33.3849 51.2262 34.7765 50.687 35.7899C50.2156 36.6758 49.1941 38.1751 48.9127 38.3941C48.7587 38.5139 47.4567 37.3293 38.0807 28.5389C32.2194 23.0436 27.4238 18.5127 27.4238 18.4703C27.4238 18.311 28.9336 17.36 30.0355 16.8253C31.6897 16.0224 33.1236 15.6066 35.3133 15.2947C36.0967 15.1831 39.1475 15.3257 40.1014 15.5185ZM36.2626 17.1719C34.7774 17.4597 33.5196 18.7635 33.3377 20.2034C33.2665 20.7665 33.4511 21.0468 33.8931 21.0468C34.2289 21.0468 34.3453 20.8851 34.4257 20.3068C34.5658 19.2989 35.2534 18.5247 36.2565 18.2454C36.5675 18.1588 36.9021 18.088 37 18.088C37.4276 18.088 38.3402 18.4286 38.6947 18.7204C39.444 19.3372 39.7626 20.3304 39.4967 21.2207C39.2192 22.1498 38.0868 22.9828 37.0985 22.9847C36.5847 22.9859 36.4559 23.2537 36.4559 24.322V25.2856L36.0708 25.48L35.6856 25.6745L36.2574 26.2175C36.572 26.516 36.8839 26.7604 36.9506 26.7604C37.0173 26.7604 39.5655 28.1723 42.6131 29.8978C46.9661 32.3625 48.1541 33.0789 48.1541 33.2392C48.1541 33.4351 48.0716 33.4444 46.0918 33.4711L44.0293 33.499L44.8376 34.2618L45.6458 35.0247H46.9585C48.1037 35.0247 48.3331 34.9954 48.7559 34.7951C49.8962 34.255 50.1563 32.8727 49.2818 32C49.1597 31.878 46.4708 30.3164 43.3065 28.5297L37.5534 25.281L37.5487 24.6401C37.5457 24.2118 37.5893 23.9871 37.6802 23.9627C38.9215 23.6289 39.8438 22.9404 40.3405 21.9765C40.585 21.502 40.6358 21.2641 40.6375 20.5877C40.6398 19.634 40.3433 18.9063 39.6669 18.2043C38.8917 17.3997 37.408 16.9498 36.2626 17.1719ZM35.9587 30.5284C45.3344 39.3192 46.5978 40.5399 46.47 40.6843C46.2365 40.9481 44.6374 41.9059 43.6925 42.3479C42.6116 42.8534 41.1274 43.3246 39.8663 43.5624C38.5264 43.815 35.4737 43.815 34.1338 43.5624C29.5087 42.6903 25.6295 39.9521 23.4549 36.0248C22.2564 33.86 21.8242 32.1348 21.8242 29.5152C21.8242 26.8897 22.2541 25.1792 23.4654 22.9853C24.0357 21.9522 25.05 20.5367 25.2199 20.5367C25.2652 20.5367 30.0977 25.033 35.9587 30.5284ZM28.5994 29.7014C26.6424 30.8108 24.9336 31.8081 24.802 31.9176C24.6706 32.0272 24.4673 32.3172 24.3505 32.562C23.9493 33.4031 24.3338 34.364 25.2442 34.7951C25.7253 35.0231 25.7645 35.0247 30.6013 35.0247H35.4736L35.5023 38.4681L35.531 41.9116L39.0404 41.9385L42.5499 41.9655V39.6421V37.3188L39.8558 34.7943L37.1616 32.2699H35.6265C34.2381 32.2699 34.0638 32.2901 33.8045 32.4814C33.6468 32.5976 33.5178 32.7354 33.5178 32.7875C33.5178 32.8395 33.8497 32.8821 34.2553 32.8821C35.0206 32.8821 35.4766 33.0561 35.4766 33.3481C35.4766 33.476 34.8138 33.4927 30.6613 33.4698C25.9279 33.4437 25.8459 33.4398 25.8459 33.2392C25.8459 33.0801 26.6799 32.5624 29.6248 30.8933L33.4036 28.7514L32.8387 28.215C32.5281 27.92 32.2476 27.6799 32.2156 27.6815C32.1836 27.683 30.5563 28.592 28.5994 29.7014ZM33.3001 37.2183V38.7997H34.1163H34.9324V37.2183V35.6369H34.1163H33.3001V37.2183Z" fill="#B4B4B4"/>
<path d="M20.7844 64.5952C20.427 63.9605 20.0404 63.3339 19.6244 62.7152C19.2084 62.0965 18.7657 61.5125 18.2964 60.9632V64.5952H17.0644V59.0512H18.0804C18.2564 59.2272 18.451 59.4432 18.6644 59.6992C18.8777 59.9552 19.0937 60.2299 19.3124 60.5232C19.5364 60.8112 19.7577 61.1125 19.9764 61.4272C20.195 61.7365 20.4004 62.0352 20.5924 62.3232V59.0512H21.8324V64.5952H20.7844ZM24.3193 61.8192C24.3193 62.0912 24.3513 62.3365 24.4153 62.5552C24.4846 62.7739 24.5806 62.9632 24.7033 63.1232C24.8313 63.2779 24.9859 63.3979 25.1673 63.4832C25.3486 63.5685 25.5566 63.6112 25.7913 63.6112C26.0206 63.6112 26.2259 63.5685 26.4073 63.4832C26.5939 63.3979 26.7486 63.2779 26.8713 63.1232C26.9993 62.9632 27.0953 62.7739 27.1593 62.5552C27.2286 62.3365 27.2633 62.0912 27.2633 61.8192C27.2633 61.5472 27.2286 61.3019 27.1593 61.0832C27.0953 60.8592 26.9993 60.6699 26.8713 60.5152C26.7486 60.3552 26.5939 60.2325 26.4073 60.1472C26.2259 60.0619 26.0206 60.0192 25.7913 60.0192C25.5566 60.0192 25.3486 60.0645 25.1673 60.1552C24.9859 60.2405 24.8313 60.3632 24.7033 60.5232C24.5806 60.6779 24.4846 60.8672 24.4153 61.0912C24.3513 61.3099 24.3193 61.5525 24.3193 61.8192ZM28.5513 61.8192C28.5513 62.2939 28.4793 62.7125 28.3353 63.0752C28.1966 63.4325 28.0046 63.7339 27.7593 63.9792C27.5139 64.2192 27.2206 64.4005 26.8793 64.5232C26.5433 64.6459 26.1806 64.7072 25.7913 64.7072C25.4126 64.7072 25.0553 64.6459 24.7193 64.5232C24.3833 64.4005 24.0899 64.2192 23.8393 63.9792C23.5886 63.7339 23.3913 63.4325 23.2473 63.0752C23.1033 62.7125 23.0313 62.2939 23.0313 61.8192C23.0313 61.3445 23.1059 60.9285 23.2553 60.5712C23.4046 60.2085 23.6046 59.9045 23.8553 59.6592C24.1113 59.4139 24.4046 59.2299 24.7353 59.1072C25.0713 58.9845 25.4233 58.9232 25.7913 58.9232C26.1699 58.9232 26.5273 58.9845 26.8633 59.1072C27.1993 59.2299 27.4926 59.4139 27.7433 59.6592C27.9939 59.9045 28.1913 60.2085 28.3353 60.5712C28.4793 60.9285 28.5513 61.3445 28.5513 61.8192ZM31.8334 59.0512H33.0814V64.5952H31.8334V59.0512ZM35.9967 59.0512C36.0927 59.2272 36.202 59.4459 36.3247 59.7072C36.4527 59.9632 36.5834 60.2432 36.7167 60.5472C36.8554 60.8459 36.9914 61.1525 37.1247 61.4672C37.258 61.7819 37.3834 62.0779 37.5007 62.3552C37.618 62.0779 37.7434 61.7819 37.8767 61.4672C38.01 61.1525 38.1434 60.8459 38.2767 60.5472C38.4154 60.2432 38.546 59.9632 38.6687 59.7072C38.7967 59.4459 38.9087 59.2272 39.0047 59.0512H40.1407C40.194 59.4192 40.242 59.8325 40.2847 60.2912C40.3327 60.7445 40.3727 61.2192 40.4047 61.7152C40.442 62.2059 40.474 62.6992 40.5007 63.1952C40.5327 63.6912 40.5594 64.1579 40.5807 64.5952H39.3647C39.3487 64.0565 39.3274 63.4699 39.3007 62.8352C39.274 62.2005 39.234 61.5605 39.1807 60.9152C39.0847 61.1392 38.978 61.3872 38.8607 61.6592C38.7434 61.9312 38.626 62.2032 38.5087 62.4752C38.3967 62.7472 38.2874 63.0085 38.1807 63.2592C38.074 63.5045 37.9834 63.7152 37.9087 63.8912H37.0367C36.962 63.7152 36.8714 63.5045 36.7647 63.2592C36.658 63.0085 36.546 62.7472 36.4287 62.4752C36.3167 62.2032 36.202 61.9312 36.0847 61.6592C35.9674 61.3872 35.8607 61.1392 35.7647 60.9152C35.7114 61.5605 35.6714 62.2005 35.6447 62.8352C35.618 63.4699 35.5967 64.0565 35.5807 64.5952H34.3647C34.386 64.1579 34.41 63.6912 34.4367 63.1952C34.4687 62.6992 34.5007 62.2059 34.5327 61.7152C34.57 61.2192 34.61 60.7445 34.6527 60.2912C34.7007 59.8325 34.7514 59.4192 34.8047 59.0512H35.9967ZM45.5764 64.5952C45.5177 64.4032 45.451 64.2059 45.3764 64.0032C45.307 63.8005 45.2377 63.5979 45.1684 63.3952H43.0084C42.939 63.5979 42.867 63.8005 42.7924 64.0032C42.723 64.2059 42.659 64.4032 42.6004 64.5952H41.3044C41.5124 63.9979 41.7097 63.4459 41.8964 62.9392C42.083 62.4325 42.2644 61.9552 42.4404 61.5072C42.6217 61.0592 42.7977 60.6352 42.9684 60.2352C43.1444 59.8299 43.3257 59.4352 43.5124 59.0512H44.7044C44.8857 59.4352 45.0644 59.8299 45.2404 60.2352C45.4164 60.6352 45.5924 61.0592 45.7684 61.5072C45.9497 61.9552 46.1337 62.4325 46.3204 62.9392C46.507 63.4459 46.7044 63.9979 46.9124 64.5952H45.5764ZM44.0804 60.3072C44.0537 60.3872 44.0137 60.4965 43.9604 60.6352C43.907 60.7739 43.8457 60.9339 43.7764 61.1152C43.707 61.2965 43.6297 61.4965 43.5444 61.7152C43.4644 61.9339 43.3817 62.1632 43.2964 62.4032H44.8724C44.787 62.1632 44.7044 61.9339 44.6244 61.7152C44.5444 61.4965 44.467 61.2965 44.3924 61.1152C44.323 60.9339 44.2617 60.7739 44.2084 60.6352C44.155 60.4965 44.1124 60.3872 44.0804 60.3072ZM50.2909 60.0112C49.7095 60.0112 49.2882 60.1739 49.0269 60.4992C48.7709 60.8192 48.6429 61.2592 48.6429 61.8192C48.6429 62.0912 48.6749 62.3392 48.7389 62.5632C48.8029 62.7819 48.8989 62.9712 49.0269 63.1312C49.1549 63.2912 49.3149 63.4165 49.5069 63.5072C49.6989 63.5925 49.9229 63.6352 50.1789 63.6352C50.3175 63.6352 50.4349 63.6325 50.5309 63.6272C50.6322 63.6219 50.7202 63.6112 50.7949 63.5952V61.6672H52.0429V64.4112C51.8935 64.4699 51.6535 64.5312 51.3229 64.5952C50.9922 64.6645 50.5842 64.6992 50.0989 64.6992C49.6829 64.6992 49.3042 64.6352 48.9629 64.5072C48.6269 64.3792 48.3389 64.1925 48.0989 63.9472C47.8589 63.7019 47.6722 63.4005 47.5389 63.0432C47.4109 62.6859 47.3469 62.2779 47.3469 61.8192C47.3469 61.3552 47.4189 60.9445 47.5629 60.5872C47.7069 60.2299 47.9042 59.9285 48.1549 59.6832C48.4055 59.4325 48.6989 59.2432 49.0349 59.1152C49.3762 58.9872 49.7389 58.9232 50.1229 58.9232C50.3842 58.9232 50.6189 58.9419 50.8269 58.9792C51.0402 59.0112 51.2215 59.0512 51.3709 59.0992C51.5255 59.1419 51.6509 59.1872 51.7469 59.2352C51.8482 59.2832 51.9202 59.3205 51.9629 59.3472L51.6029 60.3472C51.4322 60.2565 51.2349 60.1792 51.0109 60.1152C50.7922 60.0459 50.5522 60.0112 50.2909 60.0112ZM53.3641 64.5952V59.0512H57.1081V60.0992H54.6121V61.1872H56.8281V62.2112H54.6121V63.5472H57.2921V64.5952H53.3641ZM19.7295 73.5952C19.6708 73.4032 19.6042 73.2059 19.5295 73.0032C19.4602 72.8005 19.3908 72.5979 19.3215 72.3952H17.1615C17.0922 72.5979 17.0202 72.8005 16.9455 73.0032C16.8762 73.2059 16.8122 73.4032 16.7535 73.5952H15.4575C15.6655 72.9979 15.8628 72.4459 16.0495 71.9392C16.2362 71.4325 16.4175 70.9552 16.5935 70.5072C16.7748 70.0592 16.9508 69.6352 17.1215 69.2352C17.2975 68.8299 17.4788 68.4352 17.6655 68.0512H18.8575C19.0388 68.4352 19.2175 68.8299 19.3935 69.2352C19.5695 69.6352 19.7455 70.0592 19.9215 70.5072C20.1028 70.9552 20.2868 71.4325 20.4735 71.9392C20.6602 72.4459 20.8575 72.9979 21.0655 73.5952H19.7295ZM18.2335 69.3072C18.2068 69.3872 18.1668 69.4965 18.1135 69.6352C18.0602 69.7739 17.9988 69.9339 17.9295 70.1152C17.8602 70.2965 17.7828 70.4965 17.6975 70.7152C17.6175 70.9339 17.5348 71.1632 17.4495 71.4032H19.0255C18.9402 71.1632 18.8575 70.9339 18.7775 70.7152C18.6975 70.4965 18.6202 70.2965 18.5455 70.1152C18.4762 69.9339 18.4148 69.7739 18.3615 69.6352C18.3082 69.4965 18.2655 69.3872 18.2335 69.3072ZM23.0677 73.5952C22.849 73.1312 22.633 72.6485 22.4197 72.1472C22.2064 71.6459 22.0037 71.1499 21.8117 70.6592C21.6197 70.1685 21.441 69.6992 21.2757 69.2512C21.1157 68.8032 20.977 68.4032 20.8597 68.0512H22.2357C22.3424 68.3712 22.457 68.7179 22.5797 69.0912C22.7077 69.4592 22.8357 69.8272 22.9637 70.1952C23.097 70.5632 23.225 70.9152 23.3477 71.2512C23.4704 71.5872 23.585 71.8779 23.6917 72.1232C23.793 71.8779 23.905 71.5872 24.0277 71.2512C24.1557 70.9152 24.2837 70.5632 24.4117 70.1952C24.545 69.8272 24.673 69.4592 24.7957 69.0912C24.9237 68.7179 25.041 68.3712 25.1477 68.0512H26.4757C26.353 68.4032 26.2117 68.8032 26.0517 69.2512C25.8917 69.6992 25.7157 70.1685 25.5237 70.6592C25.3317 71.1499 25.129 71.6459 24.9157 72.1472C24.7024 72.6485 24.4864 73.1312 24.2677 73.5952H23.0677ZM30.5417 73.5952C30.483 73.4032 30.4164 73.2059 30.3417 73.0032C30.2724 72.8005 30.203 72.5979 30.1337 72.3952H27.9737C27.9044 72.5979 27.8324 72.8005 27.7577 73.0032C27.6884 73.2059 27.6244 73.4032 27.5657 73.5952H26.2697C26.4777 72.9979 26.675 72.4459 26.8617 71.9392C27.0484 71.4325 27.2297 70.9552 27.4057 70.5072C27.587 70.0592 27.763 69.6352 27.9337 69.2352C28.1097 68.8299 28.291 68.4352 28.4777 68.0512H29.6697C29.851 68.4352 30.0297 68.8299 30.2057 69.2352C30.3817 69.6352 30.5577 70.0592 30.7337 70.5072C30.915 70.9552 31.099 71.4325 31.2857 71.9392C31.4724 72.4459 31.6697 72.9979 31.8777 73.5952H30.5417ZM29.0457 69.3072C29.019 69.3872 28.979 69.4965 28.9257 69.6352C28.8724 69.7739 28.811 69.9339 28.7417 70.1152C28.6724 70.2965 28.595 70.4965 28.5097 70.7152C28.4297 70.9339 28.347 71.1632 28.2617 71.4032H29.8377C29.7524 71.1632 29.6697 70.9339 29.5897 70.7152C29.5097 70.4965 29.4324 70.2965 29.3577 70.1152C29.2884 69.9339 29.227 69.7739 29.1737 69.6352C29.1204 69.4965 29.0777 69.3872 29.0457 69.3072ZM32.7553 68.0512H34.0033V73.5952H32.7553V68.0512ZM39.1506 72.5232V73.5952H35.4466V68.0512H36.6946V72.5232H39.1506ZM44.0764 73.5952C44.0177 73.4032 43.951 73.2059 43.8764 73.0032C43.807 72.8005 43.7377 72.5979 43.6684 72.3952H41.5084C41.439 72.5979 41.367 72.8005 41.2924 73.0032C41.223 73.2059 41.159 73.4032 41.1004 73.5952H39.8044C40.0124 72.9979 40.2097 72.4459 40.3964 71.9392C40.583 71.4325 40.7644 70.9552 40.9404 70.5072C41.1217 70.0592 41.2977 69.6352 41.4684 69.2352C41.6444 68.8299 41.8257 68.4352 42.0124 68.0512H43.2044C43.3857 68.4352 43.5644 68.8299 43.7404 69.2352C43.9164 69.6352 44.0924 70.0592 44.2684 70.5072C44.4497 70.9552 44.6337 71.4325 44.8204 71.9392C45.007 72.4459 45.2044 72.9979 45.4124 73.5952H44.0764ZM42.5804 69.3072C42.5537 69.3872 42.5137 69.4965 42.4604 69.6352C42.407 69.7739 42.3457 69.9339 42.2764 70.1152C42.207 70.2965 42.1297 70.4965 42.0444 70.7152C41.9644 70.9339 41.8817 71.1632 41.7964 71.4032H43.3724C43.287 71.1632 43.2044 70.9339 43.1244 70.7152C43.0444 70.4965 42.967 70.2965 42.8924 70.1152C42.823 69.9339 42.7617 69.7739 42.7084 69.6352C42.655 69.4965 42.6124 69.3872 42.5804 69.3072ZM48.138 73.6672C47.834 73.6672 47.53 73.6565 47.226 73.6352C46.9273 73.6192 46.6153 73.5765 46.29 73.5072V68.1312C46.546 68.0832 46.826 68.0485 47.13 68.0272C47.434 68.0005 47.7167 67.9872 47.978 67.9872C48.33 67.9872 48.6527 68.0139 48.946 68.0672C49.2447 68.1152 49.5007 68.2005 49.714 68.3232C49.9273 68.4459 50.0927 68.6085 50.21 68.8112C50.3327 69.0085 50.394 69.2539 50.394 69.5472C50.394 69.9899 50.1807 70.3392 49.754 70.5952C50.106 70.7285 50.346 70.9099 50.474 71.1392C50.602 71.3685 50.666 71.6272 50.666 71.9152C50.666 72.4965 50.4527 72.9339 50.026 73.2272C49.6047 73.5205 48.9753 73.6672 48.138 73.6672ZM47.506 71.1792V72.6112C47.5967 72.6219 47.6953 72.6299 47.802 72.6352C47.9087 72.6405 48.026 72.6432 48.154 72.6432C48.5273 72.6432 48.8287 72.5899 49.058 72.4832C49.2873 72.3765 49.402 72.1792 49.402 71.8912C49.402 71.6352 49.306 71.4539 49.114 71.3472C48.922 71.2352 48.6473 71.1792 48.29 71.1792H47.506ZM47.506 70.2272H48.114C48.498 70.2272 48.7727 70.1792 48.938 70.0832C49.1033 69.9819 49.186 69.8219 49.186 69.6032C49.186 69.3792 49.1007 69.2219 48.93 69.1312C48.7593 69.0405 48.5087 68.9952 48.178 68.9952C48.0713 68.9952 47.9567 68.9979 47.834 69.0032C47.7113 69.0032 47.602 69.0085 47.506 69.0192V70.2272ZM55.529 72.5232V73.5952H51.825V68.0512H53.073V72.5232H55.529ZM56.4928 73.5952V68.0512H60.2368V69.0992H57.7408V70.1872H59.9568V71.2112H57.7408V72.5472H60.4208V73.5952H56.4928Z" fill="#B4B4B4"/>
<rect x="0.5" y="0.5" width="73" height="87" rx="7.5" stroke="#F2F2F2"/>
</svg>
