<svg width="20" height="20" viewBox="0 0 20 20" fill="none" xmlns="http://www.w3.org/2000/svg">
<g id="pencil-square/mini">
<path id="Vector" d="M5.43302 13.917L6.69502 10.762C6.89617 10.2594 7.19725 9.80283 7.58002 9.42L14.5 2.502C14.8978 2.10417 15.4374 1.88068 16 1.88068C16.5626 1.88068 17.1022 2.10417 17.5 2.502C17.8978 2.89982 18.1213 3.43939 18.1213 4.002C18.1213 4.56461 17.8978 5.10417 17.5 5.502L10.58 12.42C10.197 12.803 9.74002 13.105 9.23702 13.306L6.08302 14.568C5.99216 14.6044 5.89262 14.6133 5.79674 14.5936C5.70087 14.5739 5.61287 14.5266 5.54366 14.4574C5.47446 14.3881 5.42708 14.3002 5.40742 14.2043C5.38775 14.1084 5.39665 14.0089 5.43302 13.918V13.917Z" fill="#373737"/>
<path id="Vector_2" d="M3.5 5.75C3.5 5.06 4.06 4.5 4.75 4.5H10C10.1989 4.5 10.3897 4.42098 10.5303 4.28033C10.671 4.13968 10.75 3.94891 10.75 3.75C10.75 3.55109 10.671 3.36032 10.5303 3.21967C10.3897 3.07902 10.1989 3 10 3H4.75C4.02065 3 3.32118 3.28973 2.80546 3.80546C2.28973 4.32118 2 5.02065 2 5.75V15.25C2 15.9793 2.28973 16.6788 2.80546 17.1945C3.32118 17.7103 4.02065 18 4.75 18H14.25C14.9793 18 15.6788 17.7103 16.1945 17.1945C16.7103 16.6788 17 15.9793 17 15.25V10C17 9.80109 16.921 9.61032 16.7803 9.46967C16.6397 9.32902 16.4489 9.25 16.25 9.25C16.0511 9.25 15.8603 9.32902 15.7197 9.46967C15.579 9.61032 15.5 9.80109 15.5 10V15.25C15.5 15.94 14.94 16.5 14.25 16.5H4.75C4.06 16.5 3.5 15.94 3.5 15.25V5.75Z" fill="#373737"/>
</g>
</svg>
